<svg id="Capa_1" enable-background="new 0 0 511.162 511.162" height="512" viewBox="0 0 511.162 511.162" width="512" xmlns="http://www.w3.org/2000/svg"><g><path d="m422.673 67.716h44.679c8.188 0 14.826-6.638 14.826-14.826 0-8.188-6.638-14.826-14.826-14.826h-44.679z" fill="#9b8e99"/><path d="m434.881 27.443-308.8-5.66-22.31-13.06c-.937-.554-1.992-.812-3.04-.782l-9.256 13.365 1.193 55.762 8.063 7.233 12.444-2.103 11.808-10.188 129.197.232 179.671-5.904 6.946-3.82 3.874-9.183v-13.762c0-6.62-4.36-12.02-9.79-12.13z" fill="#c9bfc8"/><path d="m434.881 59.927-304.062 5.583c-3.106.057-6.146.911-8.827 2.481l-18.221 10.666c-1.86 1.09-4.19 1.03-5.99-.16l-43.1-28.35c-1.36-.9-2.22-2.64-2.22-4.54v14.406c0 1.9.86 3.64 2.22 4.54l43.1 28.35c1.8 1.19 4.13 1.25 5.99.16l22.31-13.06 308.8-5.67c5.43-.1 9.79-5.5 9.79-12.13v-14.406c0 6.63-4.36 12.03-9.79 12.13z" fill="#baafb9"/><path d="m319.009 14.809h-115.482v107.387h123.508v-99.36c0-4.433-3.594-8.027-8.026-8.027z" fill="#d7d0d6"/><path d="m208.627 27.289v-12.48h-16.473c-4.433 0-8.026 3.593-8.026 8.026v99.361h142.908v-38.968h-62.47c-30.895 0-55.939-25.045-55.939-55.939z" fill="#c9bfc8"/><path d="m482.371 99.118h-453.58c-11.76 0-21.29 9.54-21.29 21.29v358.46c0 11.76 9.53 21.29 21.29 21.29h453.58c11.76 0 21.29-9.53 21.29-21.29v-358.46c0-11.75-9.53-21.29-21.29-21.29z" fill="#f9f7f8"/><path d="m68.349 478.868v-358.46c0-11.75 9.53-21.29 21.29-21.29h-60.848c-11.76 0-21.29 9.54-21.29 21.29v358.46c0 11.76 9.53 21.29 21.29 21.29h60.848c-11.76 0-21.29-9.53-21.29-21.29z" fill="#efedef"/><path d="m37.5 455.777v-208.512c0-9.643 7.817-17.46 17.46-17.46h401.241c9.643 0 17.46 7.817 17.46 17.46v208.512c0 9.643-7.817 17.46-17.46 17.46h-401.241c-9.643 0-17.46-7.817-17.46-17.46z" fill="#d7d0d6"/><path d="m54.96 229.804c-9.643 0-17.46 7.817-17.46 17.46v208.512c0 9.643 7.817 17.46 17.46 17.46h13.389v-243.432z" fill="#c9bfc8"/><g id="XMLID_269_"><g><path d="m100.731 7.933v85.91c-1.03-.03-2.06-.35-2.95-.94l-43.1-28.35c-1.36-.9-2.22-2.64-2.22-4.54v-18.25c0-1.9.86-3.64 2.22-4.54l43.1-28.35c.89-.59 1.92-.91 2.95-.94z" fill="#baafb9"/></g></g><g id="XMLID_268_"><g><g fill="#e5e1e5"><path d="m461.821 153.973v21.34c0 9.38-7.6 16.98-16.98 16.98h-42.29c-9.38 0-16.98-7.6-16.98-16.98v-21.34c0-9.38 7.6-16.99 16.98-16.99h42.29c9.38 0 16.98 7.61 16.98 16.99z"/><path d="m332.681 146.653c9.93 0 17.99 8.05 17.99 17.99 0 4.96-2.01 9.46-5.27 12.72s-7.76 5.27-12.72 5.27h-154.2c-9.93 0-17.99-8.06-17.99-17.99 0-9.94 8.06-17.99 17.99-17.99z"/><path d="m126.591 153.973v21.34c0 9.38-7.6 16.98-16.98 16.98h-42.29c-9.38 0-16.98-7.6-16.98-16.98v-21.34c0-9.38 7.6-16.99 16.98-16.99h42.29c9.38 0 16.98 7.61 16.98 16.99z"/></g><path d="m67.321 136.983c-9.38 0-16.98 7.61-16.98 16.99v21.34c0 9.38 7.6 16.98 16.98 16.98h1.028v-55.31z" fill="#d7d0d6"/></g></g><path d="m54.681 64.553 43.1 28.35c.757.502 1.616.795 2.49.894v-.005c.153.017.307.011.461.016v-11.313c0-1.593-.979-2.955-2.399-3.678-.188-.096-.372-.203-.551-.321l-43.1-28.35c-.005-.003-.009-.006-.014-.009-.721-.481-1.195-1.259-1.451-2.087-.43-1.388-.755-2.444-.755-2.444v14.406c-.001 1.901.859 3.641 2.219 4.541z" fill="#aa9ea9"/><g><path d="m482.372 94.697h-147.837v-11.019l40.839-.748c4.142-.076 7.437-3.495 7.361-7.636-.076-4.142-3.49-7.465-7.637-7.361l-40.563.743v-35.573l100.19 1.837c.863.017 2.447 1.79 2.447 4.634v22.631c0 2.844-1.584 4.617-2.435 4.634l-27.677.507c-4.142.076-7.437 3.495-7.361 7.636.075 4.094 3.418 7.362 7.496 7.362.047 0 .094 0 .141-.001l27.689-.507c5.15-.103 9.688-2.639 12.805-6.621h19.52c12.311 0 22.326-10.015 22.326-22.326s-10.016-22.326-22.326-22.326h-17.095c-2.828-6.233-8.519-10.487-15.243-10.621l-101.228-1.856c-2.011-6.244-7.872-10.778-14.777-10.778h-126.854c-5.803 0-10.865 3.206-13.529 7.934l-50.449-.925-20.61-12.071c-4.359-2.554-9.69-2.415-13.909.362l-43.092 28.35c-3.507 2.307-5.601 6.346-5.601 10.805v1.627h-14.916c-4.143 0-7.5 3.358-7.5 7.5s3.357 7.5 7.5 7.5h14.917v1.627c0 4.459 2.094 8.498 5.6 10.804l36.291 23.876h-58.065c-15.875 0-28.79 12.915-28.79 28.79v358.461c0 15.875 12.915 28.79 28.79 28.79h453.582c15.875 0 28.79-12.915 28.79-28.79v-358.461c0-15.875-12.915-28.79-28.79-28.79zm-7.694-41.807c0 4.04-3.286 7.326-7.326 7.326h-15.179v-14.652h15.179c4.04 0 7.326 3.286 7.326 7.326zm-283.051-30.054c0-.29.236-.526.526-.526h126.855c.29 0 .526.236.526.526v69.861h-127.907zm-65.689 6.444 50.688.929v15.181h-15.113c-4.143 0-7.5 3.358-7.5 7.5s3.357 7.5 7.5 7.5h15.113v11.181l-50.688.929c-1.285.023-2.543.377-3.652 1.027l-14.059 8.234v-61.742l14.059 8.234c1.11.65 2.367 1.003 3.652 1.027zm-65.974 13.45 33.264-21.884v60.088l-33.264-21.884zm68.211 44.732 48.452-.889v8.124h-60.805zm367.987 394.486c0 7.604-6.187 13.79-13.79 13.79h-453.582c-7.604 0-13.79-6.186-13.79-13.79v-358.461c0-7.604 6.187-13.79 13.79-13.79h453.582c7.604 0 13.79 6.186 13.79 13.79z"/><path d="m178.482 190.129h15.532c4.143 0 7.5-3.358 7.5-7.5s-3.357-7.5-7.5-7.5h-15.532c-5.782 0-10.487-4.705-10.487-10.487s4.705-10.487 10.487-10.487h154.198c5.782 0 10.487 4.705 10.487 10.487s-4.705 10.487-10.487 10.487h-106.702c-4.143 0-7.5 3.358-7.5 7.5s3.357 7.5 7.5 7.5h106.702c14.054 0 25.487-11.434 25.487-25.487s-11.434-25.487-25.487-25.487h-154.198c-14.054 0-25.487 11.434-25.487 25.487s11.434 25.487 25.487 25.487z"/><path d="m67.318 199.795h42.291c13.499 0 24.481-10.982 24.481-24.481v-21.344c0-13.5-10.982-24.482-24.481-24.482h-42.291c-13.5 0-24.482 10.982-24.482 24.482v21.344c0 13.499 10.982 24.481 24.482 24.481zm-9.482-45.825c0-5.229 4.254-9.482 9.482-9.482h42.291c5.229 0 9.481 4.253 9.481 9.482v21.344c0 5.228-4.253 9.481-9.481 9.481h-42.291c-5.229 0-9.482-4.253-9.482-9.481z"/><path d="m402.553 199.795h42.291c13.5 0 24.482-10.982 24.482-24.481v-21.344c0-13.5-10.982-24.482-24.482-24.482h-42.291c-13.499 0-24.481 10.982-24.481 24.482v21.344c-.001 13.499 10.982 24.481 24.481 24.481zm-9.482-45.825c0-5.229 4.253-9.482 9.481-9.482h42.291c5.229 0 9.482 4.253 9.482 9.482v21.344c0 5.228-4.254 9.481-9.482 9.481h-42.291c-5.229 0-9.481-4.253-9.481-9.481z"/><path d="m473.662 222.305h-436.162c-4.143 0-7.5 3.358-7.5 7.5v243.433c0 4.142 3.357 7.5 7.5 7.5h105.067c4.143 0 7.5-3.358 7.5-7.5s-3.357-7.5-7.5-7.5h-97.567v-228.433h421.162v228.433h-291.632c-4.143 0-7.5 3.358-7.5 7.5s3.357 7.5 7.5 7.5h299.132c4.143 0 7.5-3.358 7.5-7.5v-243.433c0-4.143-3.357-7.5-7.5-7.5z"/><path d="m111.476 252.305h-43.976c-4.143 0-7.5 3.358-7.5 7.5v38.403c0 4.142 3.357 7.5 7.5 7.5s7.5-3.358 7.5-7.5v-30.903h36.476c4.143 0 7.5-3.358 7.5-7.5s-3.358-7.5-7.5-7.5z"/><path d="m443.662 305.708c4.143 0 7.5-3.358 7.5-7.5v-38.403c0-4.142-3.357-7.5-7.5-7.5h-42.976c-4.143 0-7.5 3.358-7.5 7.5s3.357 7.5 7.5 7.5h35.476v30.903c0 4.142 3.358 7.5 7.5 7.5z"/><path d="m400.687 450.737h42.976c4.143 0 7.5-3.358 7.5-7.5v-38.403c0-4.142-3.357-7.5-7.5-7.5s-7.5 3.358-7.5 7.5v30.903h-35.476c-4.143 0-7.5 3.358-7.5 7.5s3.357 7.5 7.5 7.5z"/><path d="m67.5 397.334c-4.143 0-7.5 3.358-7.5 7.5v38.403c0 4.142 3.357 7.5 7.5 7.5h43.976c4.143 0 7.5-3.358 7.5-7.5s-3.357-7.5-7.5-7.5h-36.476v-30.903c0-4.142-3.357-7.5-7.5-7.5z"/></g></g></svg>